PathFileType	4	(X/Y/Z)	C:/Users/beibeiliu/ov580/test_trc/capture2\sequence.15_training_dense_right.trc
DataRate	CameraRate	NumFrames	NumMarkers	Units	OrigDataRate	OrigDataStartFrame	OrigNumFrames
120	120	24	19	mm	120	92	367
Frame#	Time	ThumbCMC			ThumbMCP			ThumbIP			ThumbTip			IndexMCP			IndexPIP			IndexTip			MiddleMCP			MiddlePIP			MiddleTip			RingMCP			RingPIP			RingTip			PinkyMCP			PinkyPIP			PinkyTip			BackHand1			BackHand2			BackHand3	
		X0	Y0	Z0	X1	Y1	Z1	X2	Y2	Z2	X3	Y3	Z3	X4	Y4	Z4	X5	Y5	Z5	X6	Y6	Z6	X7	Y7	Z7	X8	Y8	Z8	X9	Y9	Z9	X10	Y10	Z10	X11	Y11	Z11	X12	Y12	Z12	X13	Y13	Z13	X14	Y14	Z14	X15	Y15	Z15	X16	Y16	Z16	X17	Y17	Z17	X18	Y18	Z18	
91	0.758333	131.23	56.0207	-29.9018	114.973	52.5198	-55.4159	106.106	53.5053	-74.783	94.9772	57.858	-95.5446	149.153	60.2656	-99.8098	144.171	29.538	-99.1334	144.359	33.5614	-67.0597	169.757	53.6056	-97.759	160.042	21.9423	-91.6538	153.352	30.1043	-57.9247	184.655	46.551	-94.0298	174.606	17.344	-82.1024	164.146	28.6461	-54.9759	215.852	58.2927	-78.6984	224.75	53.3996	-100.792	235.727	53.0177	-117.758	189.07	77.7257	-45.186	185.469	71.7784	-11.8037	154.88	79.6616	-30.2194	
92	0.766667	129.438	53.1599	-31.8726	120.117	46.559	-54.6748	104.372	49.3713	-75.5275	99.2297	52.7206	-96.918	145.927	58.8893	-99.672	146.549	27.4577	-100.402	148.259	31.4458	-67.3443	169.699	55.2653	-98.6055	162.382	23.5292	-94.1545	160.075	27.4691	-59.4039	184.572	49.2546	-93.523	179.941	20.6661	-87.0389	168.909	31.4053	-51.7141	215.656	64.2268	-82.5478	221.399	60.4249	-97.2517	235.424	61.101	-119.774	187.305	79.4847	-43.2576	184.958	73.0738	-10.2997	153.522	76.8639	-30.8352	
93	0.775	129.884	51.1093	-31.2321	116.966	42.5741	-53.7227	104.79	47.9442	-79.2809	93.27	47.9715	-96.1016	146.051	58.9295	-99.6992	147.33	28.0616	-103.24	151.191	31.4997	-67.3429	167.032	58.3942	-98.3527	168.65	23.1171	-93.4731	158.788	29.7169	-59.626	185.651	50.9353	-94.2057	181.707	23.7881	-87.1903	168.61	28.3454	-57.4876	212.235	68.8345	-81.6994	223.356	66.2023	-98.6231	235.329	66.7342	-120.822	186.915	82.2466	-44.9572	178.694	73.6624	-10.4996	151.087	80.0189	-33.8462	
94	0.783333	130.791	48.9389	-28.4118	117.298	41.4499	-51.6784	103.108	46.2368	-78.3466	95.8533	48.0067	-99.883	148.367	57.7975	-100.344	150.488	26.9511	-100.387	147.399	28.892	-67.9699	168.052	56.9253	-99.7654	167.189	23.8053	-94.0421	159.294	30.1515	-58.8152	186.893	51.5908	-95.4852	183.198	23.4529	-86.352	172.268	28.705	-54.6155	208.136	69.5486	-80.6495	220.003	67.4936	-100.729	235.268	68.9598	-123.927	185.934	81.1577	-45.0053	182.091	75.7669	-16.2434	148.882	79.3657	-30.1546	
95	0.791667	127.813	52.7553	-30.8482	114.532	45.532	-52.4412	102.977	49.6277	-80.5942	98.7802	51.0296	-98.3884	145.223	60.3274	-99.2737	148.655	28.3395	-100.632	146.389	30.6946	-68.249	171.202	57.424	-97.916	164.993	23.973	-95.9398	159.676	28.4564	-59.5369	184.859	52.2657	-94.3605	179.093	22.9402	-87.2052	169.24	29.5808	-55.0363	210.272	68.1332	-82.8837	223.384	63.7516	-102.875	235.417	63.5416	-121.792	184.941	82.3528	-44.9442	183.011	76.743	-15.4875	154.722	81.0471	-34.7706	
96	0.8	127.436	58.2583	-31.6147	119.309	51.2893	-56.1931	105.994	53.5267	-77.1303	97.5114	55.7813	-98.8007	145.057	61.1226	-100.548	142.833	30.9355	-102.487	148.53	31.9764	-67.7486	167.089	53.1695	-101.91	164.361	22.9202	-94.2356	155.239	27.9731	-60.6375	187.154	49.0611	-93.3894	174.51	20.192	-83.0397	163.012	32.6449	-55.0469	215.462	62.5961	-80.6512	221.282	58.8228	-105.203	236.564	58.8104	-120.714	186.81	79.5848	-44.596	183.012	76.3397	-17.1174	155.583	82.3852	-31.4491	
97	0.808333	128.366	62.6353	-32.1384	120.235	56.9284	-54.5873	103.541	60.7197	-75.9781	99.9388	62.7796	-99.4629	150.079	62.7228	-100.38	143.091	33.0402	-100.004	144.786	35.4826	-66.778	166.89	52.8734	-102.419	157.022	24.8401	-95.2421	152.468	32.3368	-58.2623	184.554	43.0953	-95.6866	173.676	18.5559	-84.751	165.345	30.3671	-53.4101	213.253	56.5446	-83.0573	226.153	48.148	-104.257	238.996	46.1268	-124.377	193.28	76.1864	-47.4986	188.103	75.3828	-17.7372	159.286	84.218	-34.6112	
98	0.816667	130.694	67.3211	-28.896	118.543	61.9811	-51.7575	109.941	66.8921	-76.4464	100.808	71.1717	-100.347	152.771	63.4542	-99.9689	142.991	34.6179	-99.5013	139.309	38.686	-64.8626	169.96	51.0034	-101.154	153.548	23.4225	-91.6202	148.295	32.7955	-59.6849	185.383	42.0016	-93.372	168.272	18.1258	-85.5428	161.332	29.3391	-55.1787	216.669	46.1506	-79.8253	221.552	40.8803	-105.956	233.264	33.7171	-124.362	194.016	72.2359	-45.6787	192.363	69.9443	-14.5216	163.576	84.9027	-36.9377	
99	0.825	134.863	73.498	-30.7023	122.87	67.6479	-53.2888	112.194	75.1562	-79.3716	104.006	79.4585	-101.36	151.655	65.9936	-99.3875	137.999	39.8582	-100.837	139.896	42.0494	-64.7866	167.327	51.8544	-101.237	151.131	26.6934	-93.2097	146.173	37.1595	-58.4724	182.432	38.4815	-94.5986	163.82	16.7035	-83.2049	160.895	30.0627	-53.5388	216.997	39.0795	-82.5236	223.056	28.6569	-102.202	231.748	24.3906	-124.417	199.027	66.5039	-48.5023	197.508	65.9243	-15.5047	169.444	83.4448	-35.4591	
100	0.833333	140.279	75.7642	-29.8551	124.053	75.2596	-52.8454	114.495	80.5119	-76.026	113.172	83.9217	-101.266	156.905	65.195	-99.3847	136.23	41.1648	-98.2115	139.095	41.914	-66.3087	169.622	49.6636	-98.5395	148.321	27.1608	-90.1128	146.301	38.8934	-57.4512	183.424	37.1077	-94.0266	158.121	18.8279	-85.6534	157.919	34.6379	-53.2789	212.603	33.8567	-80.5446	217.629	25.2684	-101.006	227.875	12.4385	-122.648	199.094	63.4235	-46.7085	199.854	60.9948	-16.473	176.715	83.6454	-35.0861	
101	0.841667	143.593	81.299	-32.7492	131.234	78.6434	-55.3061	120.349	89.1493	-79.9733	114.766	92.1111	-97.3281	155.782	67.949	-100.709	135.184	46.7528	-98.931	138.526	48.1252	-63.2406	168.537	48.0323	-99.2031	144.901	32.1186	-90.9562	146.182	45.4209	-54.2253	179.366	37.0408	-95.0544	154.838	20.875	-85.7831	153.936	35.5324	-55.0626	208.34	28.8778	-80.0407	214.174	16.3959	-102.375	223.011	5.23542	-123.027	202.036	56.9099	-43.3395	197.767	57.7027	-14.6756	182.476	80.2929	-34.9376	
102	0.85	150.242	80.665	-30.3801	133.989	84.3392	-52.7566	125.66	94.2578	-79.0678	122.381	94.8018	-96.7581	162.367	68.3844	-97.7844	137.805	49.3402	-98.3635	138.566	51.2635	-63.3201	170.844	48.6059	-97.0172	142.643	33.3878	-87.2668	150.069	47.0981	-51.3034	180.879	33.3864	-92.3353	152.212	22.6266	-87.0367	151.303	35.7188	-55.2669	207.782	21.8551	-82.2562	210.334	9.58013	-100.476	216.553	-3.1752	-120.495	204.366	53.3131	-47.5583	201.326	52.1898	-12.5548	187.389	76.8657	-33.1645	
103	0.858333	154.165	85.7708	-28.3642	140.937	87.7769	-52.1718	135.389	96.3957	-76.8202	131.601	102.78	-101.44	164.951	65.935	-98.6417	136.283	55.5717	-94.537	139.141	59.4111	-61.3774	171.626	46.2472	-95.4703	140.921	40.3027	-86.7349	147.014	51.508	-53.8483	177.207	32.4813	-94.5961	150.188	24.0453	-87.5471	150.25	35.982	-55.5883	204.705	13.8785	-81.6669	205.354	5.40842	-99.4027	210.502	-7.65262	-120.3	206.356	45.217	-45.5069	201.853	48.3048	-13.3011	190.467	77.6204	-32.4398	
104	0.866667	161.663	82.3912	-27.0642	147.427	94.176	-52.7376	144.484	99.3831	-77.7001	141.056	103.533	-98.0946	168.053	71.4572	-96.8938	136.67	61.1088	-93.866	143.287	59.0159	-60.974	168.909	50.0341	-97.7411	140.546	41.4505	-86.5242	149.239	50.3391	-51.9737	175.786	29.0763	-93.9016	145.028	29.4648	-87.1893	150.239	36.7894	-53.9419	198.556	10.0341	-78.799	197.701	-1.93299	-99.0616	201.004	-13.3875	-124.375	205.659	40.0501	-41.712	201.084	40.6124	-11.5119	194.828	68.1673	-30.9066	
105	0.875	169.132	84.3024	-27.4817	155.331	95.8219	-51.5152	152.421	104.57	-78.2526	150.947	107.36	-99.8915	169.382	69.5365	-97.0783	140.223	65.0158	-93.3374	143.175	62.7674	-61.0195	169.047	47.6251	-95.5677	140.37	45.1747	-87.4952	150.168	53.5164	-51.2966	170.685	30.2538	-94.826	142.318	33.6815	-86.1858	145.93	41.6013	-56.0162	191.228	5.54139	-79.5101	188.185	-4.74915	-102.591	188.833	-17.0014	-121.464	203.296	33.4897	-44.5617	201.102	37.4722	-12.8667	197.985	66.4282	-33.6616	
106	0.883333	175.253	86.5505	-25.4575	163.999	97.1869	-48.6963	162.825	105.098	-76.1666	159.981	108.722	-94.6963	171.757	65.332	-95.1639	143.653	65.2984	-92.8039	147.89	64.426	-57.4405	166.469	44.6338	-94.2685	137.664	49.2121	-82.5334	153.938	55.5771	-47.3138	167.565	29.2534	-93.5241	140.076	35.4153	-85.9613	145.699	45.3459	-55.6487	181.751	0.96277	-77.0196	176.133	-10.6122	-101.308	174.762	-21.8691	-118.743	201.471	22.829	-43.8822	199.049	26.3435	-11.3147	202.226	58.6501	-33.7227	
107	0.891667	181.519	82.8171	-24.1364	171.883	91.3468	-49.4857	173.023	102.83	-75.7097	172.194	111.796	-95.0316	175.594	66.388	-94.5571	144.676	73.6696	-88.6376	154.204	68.3257	-54.4073	165.112	47.1104	-94.6769	139.191	55.8971	-81.1055	151.976	54.1394	-47.4422	164.022	29.1061	-91.2558	135.083	38.1008	-80.1148	147.459	47.0061	-52.8717	173.503	-2.02774	-80.0825	168.026	-8.76518	-97.7143	164.252	-18.3542	-122.189	195.781	17.4576	-43.4554	197.273	23.2346	-14.8027	203.816	52.1207	-31.3339	
108	0.9	186.479	75.7258	-23.1929	181.096	91.4972	-50.0596	182.901	104.55	-72.7983	183.243	108.79	-94.0501	177.892	62.5204	-92.8547	147.108	73.5645	-85.3845	157.762	69.6942	-53.2625	168.846	45.4627	-90.6164	138.226	55.3552	-79.6335	155.351	57.789	-46.6353	157.802	28.8953	-91.467	133.111	41.5811	-78.717	148.804	45.7758	-47.4037	165.125	-2.88278	-81.8658	158.2	-6.92807	-97.7783	151.039	-19.1636	-120.961	189.829	12.4051	-41.835	194.748	19.2463	-14.0239	205.986	44.4834	-31.4036	
109	0.908333	192.657	73.3922	-22.4545	187.057	86.1116	-45.0827	191.364	98.5399	-72.7671	193.118	104.891	-92.6429	180.939	61.0212	-90.7114	152.479	74.5794	-88.0226	159.864	69.0322	-51.7301	161.918	43.3473	-91.1231	142.08	61.8895	-78.5018	155.409	56.0979	-44.7526	153.572	26.1322	-88.5508	131.968	43.4174	-78.8203	147.4	47.504	-47.6468	159.706	-0.776348	-79.5059	147.754	-6.29568	-99.0444	140.073	-12.1187	-120.641	185.995	10.0112	-41.4152	189.712	11.0558	-12.2722	202.296	38.4466	-29.0264	
110	0.916667	197.067	67.9842	-24.3538	192.499	83.2684	-45.192	199.993	96.0379	-66.56	204.431	103.697	-89.1911	179.242	54.3983	-89.9848	153.595	73.9113	-84.3577	161.156	71.4023	-52.366	166.244	43.7901	-89.6763	141.529	62.5592	-73.9233	158.856	56.3559	-43.1323	152.818	26.797	-85.841	134.786	51.9422	-75.1973	148.087	50.4735	-48.3431	152.029	-0.986784	-77.9833	142.302	-0.69874	-97.6754	130.186	-10.2294	-119.382	180.241	5.75045	-39.4452	184.001	9.48597	-8.88852	203.248	31.785	-30.9218	
111	0.925	195.508	61.1873	-22.3287	194.169	77.5794	-42.3978	204.521	90.1546	-63.0564	209.146	97.29	-84.5344	179.532	53.8082	-90.2812	156.367	75.4839	-84.3936	163.82	71.3844	-52.2083	162.946	41.43	-89.0589	144.457	65.1323	-78.2613	161.649	56.5052	-42.8096	148.612	27.9211	-85.6991	135.24	52.7095	-75.1761	150.872	48.7854	-44.9726	147.424	2.69896	-75.2893	135.442	1.58692	-96.9554	124.581	-4.07395	-117.281	178.708	5.95469	-43.0936	178.57	3.46737	-10.7125	201.663	27.2546	-26.2856	
112	0.933333	197.243	56.6552	-20.8761	196.16	70.8697	-43.9184	206.555	83.4373	-62.9062	213.927	92.5014	-84.0058	181.767	52.9279	-88.0462	158.013	73.87	-83.0027	161.785	69.0597	-53.4076	162.117	44.9059	-89.8349	143.279	63.8332	-77.9509	160.92	58.6647	-43.4895	148.666	31.0664	-86.7481	134.535	55.1817	-72.8592	150.312	46.9928	-42.9201	140.575	1.52263	-75.3928	128.014	0.558028	-96.9277	118.657	-0.0254645	-118.939	172.535	-0.363628	-42.7593	175.047	0.988843	-11.0045	196.663	23.0813	-28.0464	
113	0.941667	199.087	53.8547	-17.9484	200.409	70.9181	-38.7298	211.109	79.133	-64.6105	216.405	87.5648	-80.65	179.313	47.8941	-88.5971	162.165	73.3994	-85.6466	163.558	63.7632	-49.4009	158.359	37.713	-87.117	142.515	63.4117	-72.5676	156.563	57.3578	-43.677	146.671	30.3649	-85.4466	130.142	53.3585	-72.3718	149.469	47.2424	-42.3649	135.459	0.512101	-77.6504	126.552	2.58602	-98.5052	113.973	-0.973465	-116.193	167.849	-0.312922	-42.3901	170.853	1.37539	-7.56262	194.307	19.4711	-25.3746	
114	0.95	196.921	49.9528	-20.3718	198.4	64.9807	-38.9862	207.558	72.9623	-61.1205	217.675	80.3615	-83.4485	178.571	46.9053	-88.2926	160.263	70.5779	-82.6484	162.771	61.6023	-50.0272	155.257	36.9887	-88.6844	145.023	62.904	-76.8991	157.083	56.3613	-43.5809	144.903	29.127	-86.0784	131.085	54.7432	-71.4639	143.436	48.432	-43.4972	131.122	-1.25796	-74.2702	120.625	1.29609	-96.8058	109.201	-0.490663	-114.812	163.104	-3.98154	-36.8459	169.06	-1.70903	-11.5019	191.951	16.9052	-24.6671	
